<?xml version="1.0" standalone="no"?>
<!DOCTYPE svg PUBLIC "-//W3C//DTD SVG 20010904//EN"
 "http://www.w3.org/TR/2001/REC-SVG-20010904/DTD/svg10.dtd">
<svg version="1.0" xmlns="http://www.w3.org/2000/svg"
 width="286.000000pt" height="286.000000pt" viewBox="0 0 286.000000 286.000000"
 preserveAspectRatio="xMidYMid meet">
<metadata>
Created by potrace 1.11, written by Peter Selinger 2001-2013
</metadata>
<g transform="translate(0.000000,286.000000) scale(0.100000,-0.100000)"
fill="#000000" stroke="none">
<path d="M2205 2098 c-301 -36 -473 -72 -592 -122 -71 -30 -143 -97 -143 -133
0 -44 37 -107 94 -161 81 -76 151 -82 208 -17 52 58 74 23 42 -66 -8 -24 -26
-91 -40 -149 -13 -58 -50 -179 -81 -270 -31 -91 -57 -176 -58 -190 -1 -14 -7
-38 -13 -53 -17 -39 -15 -58 9 -118 22 -58 68 -116 107 -138 33 -18 92 -7 113
20 l16 22 49 -24 c42 -20 63 -24 139 -23 57 1 104 7 128 18 21 8 91 33 156 55
125 42 279 115 322 153 15 13 45 47 68 76 49 64 52 100 19 189 -18 49 -39 76
-141 176 l-119 118 48 52 c27 29 51 54 54 57 4 3 25 29 48 58 40 51 72 130 72
178 0 41 -37 108 -84 154 -118 115 -252 159 -421 138z m135 -275 c-1 -23 -137
-141 -200 -173 l-40 -20 -65 52 c-36 28 -65 56 -65 60 0 14 66 39 164 63 91
22 206 32 206 18z m105 -559 c22 -11 40 -25 42 -31 5 -13 -72 -87 -119 -116
-89 -54 -377 -162 -392 -147 -6 6 3 45 23 104 54 161 55 162 108 180 125 41
271 45 338 10z"/>
<path d="M1158 2075 c-2 -1 -38 -5 -82 -9 -43 -4 -128 -15 -190 -26 -61 -10
-124 -21 -141 -23 -71 -12 -386 -97 -417 -112 -18 -10 -45 -28 -59 -41 l-26
-25 18 -87 c10 -48 31 -115 45 -150 l26 -63 -27 -62 c-15 -34 -62 -131 -103
-216 l-76 -154 18 -120 c10 -67 24 -135 33 -151 33 -66 97 -115 173 -131 51
-11 206 -14 275 -5 33 5 96 11 140 14 96 8 235 31 299 50 56 17 123 66 160
118 26 37 27 38 10 70 -17 32 -93 111 -125 129 -11 5 -59 0 -135 -15 -141 -29
-185 -34 -364 -41 -160 -7 -170 -4 -147 52 33 84 72 138 108 149 19 7 101 13
182 13 116 1 159 6 196 20 67 25 187 105 193 128 6 24 -8 63 -23 63 -6 0 -39
27 -73 60 -63 60 -64 60 -112 56 -27 -3 -103 -6 -169 -7 -119 -3 -119 -2 -125
22 -14 54 4 70 105 90 27 6 102 26 165 44 63 19 142 39 175 44 99 17 131 26
191 58 34 17 84 86 84 114 0 28 -19 69 -31 69 -7 0 -31 16 -55 35 -27 22 -57
37 -78 39 -19 2 -36 3 -38 1z"/>
</g>
</svg>
